<svg version="1.2" xmlns="http://www.w3.org/2000/svg" viewBox="0 0 98 97" width="98" height="97"><style>.a{fill:#263872}.b{fill:#fff}.c{fill:#ec8b5d}</style><path class="a" d="m14.6 12.4c0 0 0.8 0.6 1.1 0.7v8.7h-1.1z"/><path class="a" d="m14.7 22.2h1c0.3 0 0.3 0.5 0.3 0.7 0 0.1 0 0.7-0.2 0.8-0.3 0.1-0.8 0-1.1 0-0.3 0-0.5 0-0.5-0.4v-0.9c0-0.2 0.2-0.2 0.5-0.2z"/><path class="a" d="m16.5 28h0.4l-1.1-3.8h-1.3l-1.1 3.8h2.5z"/><path class="a" d="m4.7 9.3l44.1-6.1 45.6 6.1-21 5.7-0.1 4.8c0 0 13.5 5.7 15.8 18.5 2.1 12.1-2.6 21.5-6.9 26.7l-0.2 29.4h-45v-10c0 0-9.7 0.4-13.2-3.1-3.3-3.3-3.8-7.9-3-13.5l-10.4-0.2c0 0 2.9-9 4.9-14.3 2-5.3 2.4-7.9 2.4-10.8 0-2.8 5.4-13.5 8-16.2v-10.7z"/><path class="b" d="m38.2 66.5c0 0-3.4 19.2 16.9 16v10.9h25.7v-29c0 0 13.6-15.6 2.9-34.1 0 0-6.2-11.8-27.3-11.1-21.7 0.8-20.7 26.7-20.7 26.7l-7 20.2z"/><path class="c" d="m43.4 53.3c-1.9 0-3.4-1.5-3.4-3.5 0-1.9 1.5-3.4 3.4-3.4 1.9 0 3.5 1.5 3.5 3.4 0 2-1.6 3.5-3.5 3.5z"/><path class="b" d="m24.2 53.3c-1.9 0-3.4-1.5-3.4-3.5 0-1.9 1.5-3.4 3.4-3.4 1.9 0 3.5 1.5 3.5 3.4 0 2-1.6 3.5-3.5 3.5z"/><path class="c" d="m49.4 43.3c-0.2 0-1-0.6-1.3-0.7-1-0.8-3.8-2.8-3.1-5.6 0.6-2.5 1.9-3.6 2.6-4q0.4-0.2 0.6-0.6c0.4-1.2 1.8-4.1 4.2-4.3 3-0.2 3.3-1 3.9-1.8 0.5-0.8 2.5-1.4 4-0.9 1.5 0.3 2.4 0.7 3 0.2 0.6-0.3 4.3-0.7 5.7 0.1 1.3 1 2.9 1 3.7 1 0.8 0.1 3.5 2.1 3.7 2.8 0.2 0.8 3.2 2.4 3.5 4.4 0.2 2.1 0.2 3.7 0.9 4.3 0.6 0.6 0 3.6-0.7 5.1-0.5 1.6-1.5 3.8-3 5.1-1.6 1.3-3.2 2.5-3.9 3.7-0.3 0.6-0.5 1.6-0.6 2.5 0 0.6-0.5 1.2-1.2 1.2h-3.6c-0.6 0-1.2-0.7-1.2-1.3 0-2.1 0-5.6 0.1-6.4 0-1.1-1.7-2.3-2.5-3.2-0.9-1.1-1.4-1.2-3.3-1.9-1.9-0.6-3.9-0.2-4.6 0-0.6 0.2-1.5-0.2-2.3-0.4-0.9-0.2-1.3 0.8-2.1 0.8-0.5 0-1.8-0.1-2.5-0.1z"/></svg>