<svg version="1.2" xmlns="http://www.w3.org/2000/svg" viewBox="0 0 254 11" width="254" height="11"><style>.a{opacity:.4;fill:#f0c933}</style><path class="a" d="m55.1 2.2q36-0.4 72.1-0.6c24-0.1 47.9 0 71.8 0.1q20.4 0.1 40.8 0.4l1.8-1.6q-46.5 0.4-93 1.2-46.6 0.7-93.1 1.6-26.1 0.5-52.2 1.1c-1 0-2.6 0.2-3.1 0.8-0.6 0.5 0.4 0.8 1.2 0.8q48.5-0.7 97.1-0.1 48.5 0.6 96.9 2.5 27.2 1.1 54.3 2.6c1 0 2.6-0.2 3.2-0.8 0.5-0.5-0.5-0.7-1.3-0.8q-48.3-2.7-96.8-4c-32.3-0.9-64.7-1.4-97-1.4q-27.3 0-54.5 0.4l-1.9 1.6q46.6-1.1 93.1-1.9 46.5-0.8 93-1.5 26.2-0.3 52.3-0.6c1 0 2.6-0.1 3.1-0.7 0.6-0.6-0.4-0.8-1.3-0.8q-36-0.4-72.1-0.5c-24 0-47.9 0-71.8 0.2q-20.4 0.2-40.8 0.5c-1 0-2.5 0.2-3.1 0.7-0.5 0.6 0.4 0.9 1.3 0.8z"/></svg>